<svg width="14" height="14" viewBox="0 0 14 14" fill="none" xmlns="http://www.w3.org/2000/svg">
<path d="M9.23847 2.79926C7.46033 1.02112 4.5774 1.02112 2.79926 2.79926C1.02112 4.5774 1.02112 7.46033 2.79926 9.23847C4.5774 11.0166 7.46033 11.0166 9.23847 9.23847C11.0166 7.46033 11.0166 4.5774 9.23847 2.79926ZM1.76289 1.76288C4.1134 -0.587628 7.92434 -0.587628 10.2748 1.76288C12.45 3.93799 12.6123 7.36368 10.7618 9.72543L13.7854 12.749C14.0715 13.0352 14.0715 13.4992 13.7854 13.7854C13.4992 14.0715 13.0352 14.0715 12.749 13.7854L9.72543 10.7618C7.36368 12.6123 3.93799 12.4499 1.76289 10.2748C-0.587628 7.92433 -0.587628 4.1134 1.76289 1.76288Z" fill="#D9D9D9"/>
</svg>
